<svg xmlns="http://www.w3.org/2000/svg" viewBox="0 0 1691.74 190.95"><path fill="#ffb71b" d="M92.821 21.562L.511 183.274c-1.328 2.853 0 4.755 3.187 4.755h34.879a8.786 8.786 0 0 0 7.63-4.429l91.109-159.526z"/><path fill="#cf2028" d="M189.023 183.247L210.801 6.905a5.049 5.049 0 0 1 5.31-4.78h64c40.633 0 65.066 23.106 60.817 58.161l-8.5 69.58c-4.25 35.055-34.525 58.161-75.159 58.161h-64c-2.918 0-4.512-1.853-4.246-4.78zm48.6-32.932h26.026c13.811 0 24.433-10.888 27.089-27.884l6.64-54.71c2.124-17-6.109-27.884-20.449-27.884h-25.757a1.994 1.994 0 0 0-1.858 1.858L236.03 148.457c0 1.062.531 1.858 1.593 1.858zm120.555-28.68l6.639-53.118C369.863 27.617 401.202 0 443.163 0c42.225 0 66.924 27.621 61.878 68.517l-6.369 53.118c-5.047 41.694-36.65 69.313-78.876 69.313-41.965 0-66.665-27.619-61.618-69.313zm97.465 1.326l6.906-54.973c2.125-18.059-7.437-30.275-23.9-30.275-16.2 0-28.947 12.216-31.073 30.275l-6.639 54.973c-2.39 18.325 7.171 30.277 23.371 30.277 16.464 0 29.211-11.952 31.335-30.277zm154.547 61.348l-19.4-61.811a2.455 2.455 0 0 0-2.914-1.653l-17.423 4.167a3.708 3.708 0 0 0-2.816 3.132l-7.114 55.1a4.979 4.979 0 0 1-5.046 4.78h-33.458c-2.921 0-4.515-1.858-4.249-4.78L539.547 6.902a5.051 5.051 0 0 1 5.311-4.78h74.893c34.259 0 54.012 23.331 49.928 57.629-2.257 18.958-13.024 38.281-36.565 50.594a3.678 3.678 0 0 0-1.841 4.434c4.648 13.724 23.534 67.669 23.534 67.669 1.062 3.186-1.062 5.576-4.249 5.576h-35.322c-2.655.003-4.25-1.059-5.046-3.715zM578.056 41.695l-5.86 48.75a1.71 1.71 0 0 0 2.086 1.881c6.213-1.467 24.765-5.995 31.093-7.7 15.96-4.291 20.563-13.8 21.74-25.876.991-10.17-4.629-18.917-19.049-18.917h-28.152a1.994 1.994 0 0 0-1.858 1.862zm103.959 79.94l6.639-53.118C693.7 27.617 725.038 0 766.999 0c42.226 0 66.924 27.621 61.878 68.517l-6.373 53.118c-5.047 41.694-36.65 69.313-78.876 69.313-41.961 0-66.656-27.619-61.613-69.313zm97.465 1.326l6.905-54.973c2.126-18.059-7.436-30.275-23.9-30.275-16.2 0-28.947 12.216-31.072 30.275l-6.641 54.973c-2.391 18.325 7.17 30.277 23.371 30.277 16.466 0 29.213-11.952 31.337-30.277zm72.708 6.375l8.5-68.786C864.936 24.168 893.353 0 930.799 0c37.713 0 59.754 23.37 55.505 58.692-.266 1.858-1.858 2.923-4.248 3.186l-17.263 1.063c-2.391.266-3.719-.53-3.453-1.592v-1.6c2.921-22.574-10.358-37.712-33.2-37.712s-39.837 15.138-42.758 37.712l-8.764 70.644c-2.656 22.574 10.623 37.712 33.728 37.712 22.84 0 39.57-15.138 42.492-37.712 0-1.861 1.593-3.186 4.25-2.923l16.73 1.062c2.391.267 3.719.533 3.719 1.329l-.266 1.328c-4.249 35.322-32.134 59.224-69.847 59.224-37.443.005-59.752-24.429-55.236-61.077zm154.371 54.709l21.777-177.936a4.379 4.379 0 0 1 4.515-3.984h17c2.124 0 3.452 1.594 3.186 3.984l-21.775 177.936a4.313 4.313 0 0 1-4.251 3.982h-17c-2.388 0-3.716-1.594-3.452-3.982zm66.105 0l21.777-177.936a4.38 4.38 0 0 1 4.515-3.984h16.467a4.311 4.311 0 0 1 4.249 2.656l62.676 131.46c.264 1.062 1.326.8 1.592-.532l15.932-129.6a4.312 4.312 0 0 1 4.249-3.984h17c2.391 0 3.719 1.594 3.453 3.984l-21.775 177.936a4.379 4.379 0 0 1-4.515 3.982h-16.733a4.311 4.311 0 0 1-4.249-2.656l-62.676-132.256c-.264-1.062-1.326-.8-1.592.532l-15.669 130.4a4.313 4.313 0 0 1-4.251 3.982h-17c-2.386-.002-3.714-1.596-3.45-3.984zm299.944-159.877h-89.765a1.679 1.679 0 0 0-1.592 1.326l-6.905 56.57a1.212 1.212 0 0 0 1.062 1.326h61.348c2.388 0 3.716 1.594 3.453 3.985l-1.6 14.074c-.532 2.39-2.124 3.985-4.515 3.985h-61.348a1.254 1.254 0 0 0-1.328 1.328l-7.169 57.9c0 .8.264 1.326 1.062 1.326h90.029c2.39 0 3.719 1.594 3.452 3.985l-1.858 14.076a4.312 4.312 0 0 1-4.248 3.982h-112.07c-2.388 0-3.717-1.594-3.453-3.982l21.778-177.936a4.378 4.378 0 0 1 4.514-3.984h112.073c2.124 0 3.453 1.594 3.189 3.984l-1.594 14.075a4.38 4.38 0 0 1-4.515 3.98zm9.684 159.877l21.78-177.936a4.378 4.378 0 0 1 4.514-3.984h17.263a4.311 4.311 0 0 1 4.249 2.656l34.526 71.174q.394 1.593 1.592 0l52.319-71.174a5.056 5.056 0 0 1 4.78-2.656h17.257c2.388 0 3.717 1.594 3.453 3.984l-21.778 177.936a4.378 4.378 0 0 1-4.514 3.982h-17a3.1 3.1 0 0 1-3.187-3.982l16.465-134.912c.266-1.329-.8-1.6-1.595-.533l-42.224 58.958a5.759 5.759 0 0 1-5.047 2.657h-8.234a4.314 4.314 0 0 1-4.248-2.657L1425.308 48.6c-.53-1.062-1.592-.8-1.858.533l-16.467 134.912a4.311 4.311 0 0 1-4.249 3.982h-17c-2.38 0-3.708-1.594-3.442-3.982zm283.045.796l-5.31-29.745c-.267-.53-.267-1.062-1.063-1.062h-71.972c-.8 0-1.062.532-1.328 1.062l-12.746 29.745a4.741 4.741 0 0 1-4.781 3.186h-18.325c-2.656 0-3.719-1.594-2.39-4.514l77.549-178.2a4.737 4.737 0 0 1 4.778-3.186h23.636a3.565 3.565 0 0 1 3.985 3.186l34.26 178.2c.53 2.656-.8 4.514-3.719 4.514h-18.591a3.712 3.712 0 0 1-3.983-3.186zm-69.315-50.99h58.958c.8 0 1.328-.533 1.062-1.6l-17.527-99.058c-.266-1.328-1.328-1.328-1.594 0l-41.695 99.058c-.533 1.067 0 1.6.796 1.6zM170.344 183.274l-37.283-179.7c-.53-2.378-2.388-3.568-5.045-3.568H94.364c-3.14 0-5.5 2.561-4.911 5.323l24.86 119.867-40.259 9.649-19.822 34.701 66-15.818 6.193 29.86a5.571 5.571 0 0 0 5.454 4.44h33.952c3.45 0 5.041-1.903 4.513-4.754z"/><path fill="#ff7f30" d="M92.821 21.562l12.23 58.97-12.23 21.448z"/><path fill="#9e3223" d="M69.037 165.998l19.88-34.707-14.862 3.548-19.823 34.707z"/></svg>